<svg width="680" height="520" viewBox="0 0 680 520" xmlns="http://www.w3.org/2000/svg" font-family="Arial, Helvetica, sans-serif">
  <defs>
    <marker id="arrowhead2" viewBox="0 0 10 10" refX="8" refY="5" markerWidth="6" markerHeight="6" orient="auto-start-reverse">
      <path d="M2 1L8 5L2 9" fill="none" stroke="#0F6E56" stroke-width="1.5" stroke-linecap="round" stroke-linejoin="round"/>
    </marker>
  </defs>

  <rect x="140" y="40" width="400" height="56" rx="8" fill="#E1F5EE" stroke="#1D9E75" stroke-width="1"/>
  <text x="340" y="60" text-anchor="middle" font-size="14" font-weight="600" fill="#04342C">Automated data pull</text>
  <text x="340" y="78" text-anchor="middle" font-size="12" fill="#085041">Via MySQL &amp; Power Query</text>
  <line x1="340" y1="96" x2="340" y2="136" stroke="#0F6E56" stroke-width="1.5" marker-end="url(#arrowhead2)"/>

  <rect x="140" y="136" width="400" height="56" rx="8" fill="#E1F5EE" stroke="#1D9E75" stroke-width="1"/>
  <text x="340" y="156" text-anchor="middle" font-size="14" font-weight="600" fill="#04342C">Automated cleaning</text>
  <text x="340" y="174" text-anchor="middle" font-size="12" fill="#085041">Modeled, transformed data</text>
  <line x1="340" y1="192" x2="340" y2="232" stroke="#0F6E56" stroke-width="1.5" marker-end="url(#arrowhead2)"/>

  <rect x="140" y="232" width="400" height="56" rx="8" fill="#E1F5EE" stroke="#1D9E75" stroke-width="1"/>
  <text x="340" y="252" text-anchor="middle" font-size="14" font-weight="600" fill="#04342C">Power BI dashboard</text>
  <text x="340" y="270" text-anchor="middle" font-size="12" fill="#085041">Live KPIs, auto-refresh</text>
  <line x1="340" y1="288" x2="340" y2="328" stroke="#0F6E56" stroke-width="1.5" marker-end="url(#arrowhead2)"/>

  <rect x="140" y="328" width="400" height="56" rx="8" fill="#E1F5EE" stroke="#1D9E75" stroke-width="1"/>
  <text x="340" y="348" text-anchor="middle" font-size="14" font-weight="600" fill="#04342C">Self-service access</text>
  <text x="340" y="366" text-anchor="middle" font-size="12" fill="#085041">Anytime, any device</text>
  <line x1="340" y1="384" x2="340" y2="424" stroke="#0F6E56" stroke-width="1.5" marker-end="url(#arrowhead2)"/>

  <rect x="140" y="424" width="400" height="56" rx="8" fill="#E1F5EE" stroke="#1D9E75" stroke-width="1"/>
  <text x="340" y="444" text-anchor="middle" font-size="14" font-weight="600" fill="#04342C">Data-driven decisions</text>
  <text x="340" y="462" text-anchor="middle" font-size="12" fill="#085041">Staffing &amp; inventory optimized</text>
</svg>
